<?xml version="1.0" standalone="no"?>
<!DOCTYPE svg PUBLIC "-//W3C//DTD SVG 20010904//EN"
 "http://www.w3.org/TR/2001/REC-SVG-20010904/DTD/svg10.dtd">
<svg version="1.0" xmlns="http://www.w3.org/2000/svg"
 width="730.000000pt" height="730.000000pt" viewBox="0 0 730.000000 730.000000"
 preserveAspectRatio="xMidYMid meet">
<metadata>
Created by potrace 1.11, written by Peter Selinger 2001-2013
</metadata>
<g transform="translate(0.000000,730.000000) scale(0.100000,-0.100000)"
fill="#000000" stroke="none">
<path d="M1502 5598 c-5 -5 -30 -9 -55 -7 -25 2 -45 0 -44 -5 1 -6 -11 -10
-28 -10 -16 -1 -36 -8 -43 -16 -10 -11 -15 -12 -18 -3 -3 7 -12 9 -20 6 -7 -3
-11 -10 -8 -15 4 -6 -2 -7 -16 -3 -14 4 -20 3 -16 -3 3 -5 0 -10 -7 -9 -32 1
-48 -4 -42 -13 3 -5 1 -10 -4 -10 -6 0 -11 5 -11 10 0 6 -5 10 -11 10 -5 0 -8
-3 -6 -7 3 -5 -1 -13 -8 -20 -11 -10 -15 -10 -18 0 -3 7 -9 1 -15 -13 -6 -14
-11 -19 -11 -12 -1 9 -10 7 -30 -7 -22 -16 -31 -18 -34 -9 -4 8 -6 7 -6 -3 -1
-9 -8 -20 -17 -23 -10 -4 -13 -2 -9 7 4 6 0 4 -9 -7 -8 -10 -20 -15 -27 -10
-8 4 -10 3 -5 -4 4 -7 2 -12 -5 -12 -6 0 -23 -12 -36 -26 -14 -15 -30 -23 -39
-20 -8 3 -13 2 -10 -3 5 -8 -16 -23 -36 -25 -3 -1 -10 -5 -15 -10 -5 -5 -3 -6
5 -2 6 4 12 2 12 -3 0 -6 -10 -11 -22 -11 -17 0 -19 -3 -10 -9 10 -6 8 -10 -8
-14 -14 -4 -19 -10 -14 -18 5 -9 2 -10 -9 -6 -9 3 -19 2 -22 -3 -4 -6 -1 -10
5 -10 6 0 9 -4 5 -10 -3 -5 -12 -7 -19 -4 -8 3 -17 0 -22 -7 -4 -8 -3 -10 4
-5 7 4 12 3 12 -2 0 -5 -9 -12 -21 -15 -13 -4 -18 -10 -14 -17 5 -8 1 -10 -12
-6 -13 4 -20 2 -20 -8 0 -9 4 -13 9 -10 4 3 5 -2 2 -10 -3 -9 -10 -13 -15 -10
-5 3 -9 -5 -10 -18 0 -13 -3 -17 -6 -10 -5 13 -24 17 -22 5 3 -20 -2 -34 -10
-28 -6 3 -8 -4 -6 -15 3 -13 -1 -20 -12 -20 -13 0 -13 -3 -2 -17 7 -10 10 -15
5 -11 -5 4 -15 1 -22 -7 -17 -17 -18 -29 -1 -19 9 5 9 3 -1 -7 -11 -12 -14
-12 -23 1 -8 12 -9 10 -4 -7 5 -18 2 -23 -12 -23 -15 0 -16 -2 -3 -10 8 -5 10
-10 4 -10 -6 0 -11 -10 -12 -22 0 -33 -13 -69 -22 -63 -4 3 -10 -2 -13 -9 -3
-8 -1 -17 6 -20 9 -3 9 -5 0 -5 -7 -1 -13 -8 -13 -17 0 -8 -5 -12 -11 -8 -7 4
-7 -1 1 -16 8 -15 8 -20 1 -16 -10 7 -15 -8 -14 -41 1 -7 -3 -13 -8 -13 -5 0
-9 -18 -9 -39 0 -22 -4 -42 -9 -46 -16 -9 -14 -545 1 -545 9 0 9 -3 0 -12 -15
-15 -16 -31 -1 -22 8 5 10 -3 7 -24 -2 -17 -2 -31 1 -30 19 2 24 -4 11 -12
-10 -6 -11 -10 -2 -10 7 0 12 -14 12 -35 0 -19 5 -35 10 -35 6 0 9 -6 8 -12
-2 -7 3 -12 11 -10 12 3 12 0 1 -13 -7 -8 -10 -18 -6 -22 3 -3 6 0 6 7 0 9 5
7 14 -6 10 -13 11 -23 4 -31 -8 -10 -5 -13 10 -13 15 0 20 -5 15 -15 -7 -19
25 -57 41 -48 6 4 4 -2 -4 -12 -9 -11 -10 -16 -2 -11 7 4 12 2 12 -4 0 -6 5
-8 10 -5 6 3 10 1 10 -5 0 -16 26 -40 34 -32 4 3 4 -1 0 -11 -4 -13 -1 -17 15
-17 12 0 21 -4 21 -10 0 -5 7 -10 16 -10 8 0 12 -4 9 -10 -5 -9 8 -14 19 -7 7
4 46 -36 46 -48 0 -13 21 -25 55 -32 11 -2 21 -8 23 -13 2 -6 10 -10 18 -10 8
0 14 -4 14 -9 0 -5 8 -8 18 -7 9 0 16 -5 14 -12 -2 -9 4 -11 18 -7 14 4 22 1
26 -10 5 -12 9 -13 14 -5 5 9 10 6 15 -9 5 -18 9 -20 21 -10 10 8 14 8 14 0 0
-6 11 -11 25 -11 14 0 25 -6 25 -12 0 -9 4 -8 10 2 8 13 10 12 10 -3 0 -10 5
-15 10 -12 5 3 10 0 10 -7 0 -9 3 -9 10 2 8 13 10 12 10 -4 0 -11 3 -16 7 -13
3 4 13 1 21 -6 13 -10 14 -9 8 1 -5 8 9 5 34 -8 23 -12 39 -16 35 -10 -4 7 4
4 19 -5 20 -14 26 -14 27 -4 0 8 4 5 9 -6 6 -13 9 -15 9 -5 1 13 2 13 11 0 8
-12 10 -12 10 -1 0 9 6 7 19 -8 12 -13 22 -18 26 -11 3 5 11 10 16 10 6 0 8
-4 5 -8 -3 -4 8 -13 25 -19 22 -9 27 -8 22 0 -5 8 -2 8 9 0 8 -7 27 -14 42
-15 14 -1 26 -6 26 -10 0 -4 11 -8 25 -8 14 0 25 -5 25 -11 0 -5 4 -7 10 -4 5
3 20 0 32 -6 13 -7 34 -14 47 -15 13 -2 28 -9 32 -16 7 -11 9 -11 9 0 0 10 3
10 14 0 8 -7 11 -17 8 -23 -3 -5 1 -4 10 3 12 10 17 10 27 -1 6 -8 8 -17 4
-20 -3 -4 -1 -7 5 -7 7 0 12 5 12 10 0 6 5 10 12 10 6 0 9 -3 5 -6 -9 -10 16
-32 30 -27 7 3 13 0 13 -7 0 -6 5 -8 10 -5 6 3 10 1 10 -4 0 -6 7 -11 16 -11
8 0 12 -4 9 -10 -3 -5 -1 -10 5 -10 6 0 8 -5 4 -12 -5 -8 -2 -9 10 -5 14 5 17
3 12 -8 -3 -9 0 -15 9 -15 8 0 15 -4 15 -10 0 -5 8 -10 17 -10 9 0 13 -3 9 -7
-3 -4 4 -13 16 -21 19 -11 20 -12 3 -8 -19 6 -19 5 -2 -8 9 -7 17 -18 17 -25
0 -6 4 -11 10 -11 5 0 10 -37 12 -82 2 -64 0 -86 -12 -95 -13 -11 -13 -14 0
-23 11 -7 11 -10 2 -10 -7 0 -10 -4 -7 -10 3 -5 2 -10 -4 -10 -6 0 -8 -8 -4
-17 3 -10 2 -15 -2 -11 -11 10 -38 -29 -30 -42 3 -6 -2 -10 -12 -10 -15 0 -16
-2 -3 -11 12 -9 10 -10 -8 -6 -18 4 -21 3 -12 -8 8 -10 8 -15 -1 -21 -8 -5 -9
-3 -4 6 5 8 3 11 -6 8 -8 -3 -13 -10 -12 -16 1 -5 -4 -13 -12 -16 -8 -3 -15
-1 -15 4 0 6 -4 10 -10 10 -5 0 -7 -8 -3 -17 3 -10 3 -15 -1 -11 -10 8 -36
-14 -29 -25 2 -4 -1 -7 -6 -7 -6 0 -11 6 -11 13 0 6 -10 1 -21 -13 -11 -14
-17 -19 -13 -11 5 10 3 12 -7 5 -16 -10 -20 -11 -50 -13 -11 0 -17 -5 -14 -11
3 -5 2 -10 -4 -10 -5 0 -12 6 -14 13 -4 8 -6 8 -6 0 -1 -8 -46 -12 -152 -12
-102 -1 -149 2 -144 9 9 14 -8 13 -23 -2 -9 -9 -12 -9 -12 1 0 9 -10 12 -30 9
-22 -3 -30 -1 -30 11 0 14 -1 14 -10 1 -5 -8 -10 -10 -10 -4 0 7 -7 15 -16 18
-10 4 -13 2 -8 -7 4 -6 -3 -3 -16 8 -13 11 -21 15 -17 9 3 -6 0 -11 -8 -11 -8
0 -13 5 -12 11 1 6 -4 10 -10 8 -7 -1 -13 2 -13 7 0 6 -9 8 -20 6 -13 -2 -20
2 -20 11 0 8 -5 14 -11 14 -5 0 -7 -5 -3 -11 4 -8 0 -7 -15 1 -12 6 -19 15
-16 21 4 5 1 9 -4 9 -6 0 -11 -4 -11 -10 0 -5 -5 -10 -12 -10 -6 0 -9 3 -5 6
9 9 -21 36 -32 29 -5 -3 -17 5 -25 17 -9 12 -16 19 -16 15 0 -5 -7 -1 -16 7
-8 9 -19 14 -24 11 -5 -3 -11 4 -15 15 -4 11 -11 18 -16 14 -5 -3 -17 3 -27
13 -9 11 -13 13 -8 6 6 -10 4 -12 -8 -7 -9 3 -16 12 -16 20 0 8 -7 14 -16 14
-9 0 -12 5 -8 13 5 7 2 7 -10 -2 -15 -12 -17 -12 -14 0 2 9 -4 13 -16 11 -18
-3 -18 -2 -5 14 12 16 12 17 -3 11 -13 -4 -15 -2 -11 10 4 11 2 14 -5 9 -7 -4
-12 -2 -12 3 0 6 -7 11 -15 11 -8 0 -15 6 -15 13 0 8 -4 7 -10 -3 -6 -9 -13
-11 -17 -5 -14 18 -33 16 -26 -3 3 -9 2 -14 -2 -10 -12 11 -34 -35 -23 -49 7
-8 3 -10 -14 -6 -19 5 -21 3 -10 -8 10 -11 8 -17 -10 -32 -13 -10 -18 -16 -12
-13 6 3 11 -1 11 -8 0 -9 -7 -12 -16 -8 -9 3 -13 2 -9 -3 4 -4 2 -15 -5 -23
-9 -13 -9 -14 1 -8 6 4 12 5 12 2 0 -3 -12 -13 -27 -21 -16 -9 -21 -14 -12
-11 13 3 15 0 12 -15 -3 -10 -12 -19 -20 -19 -12 0 -13 -3 -3 -15 10 -12 8
-13 -10 -10 -19 4 -20 2 -8 -12 11 -15 11 -16 -4 -10 -17 6 -23 -3 -19 -27 1
-4 -6 -15 -16 -23 -10 -8 -12 -11 -5 -8 11 6 11 3 1 -13 -7 -12 -18 -18 -24
-15 -5 3 -5 0 2 -7 9 -10 7 -17 -8 -33 -12 -14 -15 -23 -8 -28 6 -3 1 -9 -13
-13 -13 -4 -18 -9 -11 -12 10 -4 10 -8 0 -19 -7 -7 -15 -11 -19 -8 -5 2 -8 -1
-8 -6 0 -6 5 -11 10 -11 6 0 10 -4 10 -10 0 -5 -8 -7 -18 -3 -9 3 -14 3 -10
-2 4 -4 2 -15 -5 -23 -10 -13 -9 -14 3 -8 8 5 2 -4 -15 -18 -23 -20 -25 -25
-10 -20 15 4 15 2 -4 -9 -18 -11 -20 -16 -10 -20 11 -4 11 -6 -1 -7 -8 0 -22
-16 -31 -35 -9 -19 -11 -32 -5 -29 6 3 3 -1 -8 -10 -10 -8 -15 -20 -10 -27 4
-8 3 -10 -4 -5 -7 4 -12 2 -12 -3 0 -6 5 -11 10 -11 6 0 10 -6 10 -13 0 -8 10
-22 22 -33 12 -10 18 -13 14 -6 -5 7 -1 12 10 12 10 0 15 -3 11 -6 -8 -9 21
-37 31 -30 11 7 42 -30 34 -40 -4 -5 0 -3 8 3 11 8 18 8 27 -2 6 -7 9 -17 5
-21 -4 -5 1 -2 10 5 16 12 19 10 27 -10 5 -13 10 -17 11 -9 0 12 2 12 9 2 4
-7 17 -14 28 -15 13 -1 20 -7 18 -17 -3 -15 13 -20 77 -23 9 -1 16 -6 15 -12
-1 -5 4 -9 11 -8 6 2 12 -2 12 -7 0 -6 6 -10 14 -10 8 0 17 -6 19 -12 4 -10 6
-10 6 0 1 10 4 10 15 0 8 -7 12 -16 9 -20 -2 -5 0 -8 6 -8 5 0 13 5 16 10 4 7
14 2 26 -11 10 -12 19 -18 19 -12 0 5 7 10 15 10 9 0 11 -4 6 -11 -7 -8 3 -11
30 -10 21 0 39 -3 39 -8 0 -4 7 -8 15 -8 8 0 15 -5 15 -11 0 -5 4 -7 10 -4 5
3 24 -1 41 -10 18 -10 28 -12 24 -5 -4 7 4 5 18 -4 20 -13 26 -14 30 -4 3 8 6
5 6 -7 1 -17 3 -17 11 -5 5 8 10 10 10 5 0 -6 12 -12 26 -13 15 -1 33 -7 40
-13 11 -9 14 -8 14 1 0 10 3 10 15 0 8 -7 34 -11 60 -8 31 2 45 -1 45 -9 0 -7
5 -13 11 -13 5 0 7 4 4 10 -3 6 1 7 9 4 9 -3 16 -10 16 -16 0 -5 5 -6 10 -3 6
3 131 6 279 5 210 0 270 2 274 12 4 11 6 11 6 0 1 -10 6 -10 21 -2 11 6 36 11
55 12 20 1 38 5 41 10 3 4 18 8 34 8 16 0 32 5 35 10 4 6 12 10 18 9 25 -3 38
1 32 11 -3 6 -1 10 4 10 6 0 11 -6 11 -12 0 -8 3 -9 8 -3 4 6 16 12 27 13 11
2 23 9 26 14 4 6 8 5 11 -3 3 -10 10 -7 23 8 15 18 22 20 34 10 12 -9 13 -9 7
1 -6 11 11 17 37 13 4 0 7 3 7 9 0 5 7 7 15 4 11 -5 13 -2 9 10 -3 9 -2 16 4
16 6 0 13 -6 15 -12 4 -10 6 -10 6 0 1 7 6 10 11 7 6 -3 10 1 10 11 0 13 3 14
15 4 13 -10 15 -9 16 11 0 13 3 19 5 12 3 -7 12 -9 20 -6 13 5 13 8 2 15 -9 7
-7 8 10 5 12 -3 20 -1 16 4 -3 5 0 9 6 9 6 0 8 5 4 13 -5 7 0 6 11 -3 10 -8
16 -10 12 -4 -4 7 1 18 10 25 14 12 16 12 9 -1 -4 -8 -1 -7 7 3 9 11 22 15 33
11 16 -5 16 -4 4 5 -13 9 -13 12 -1 23 10 10 12 10 7 0 -10 -16 2 -15 19 2 8
7 11 16 8 20 -4 3 -1 6 5 6 5 0 13 -6 15 -12 3 -7 6 -2 6 12 1 20 3 22 11 10
8 -13 10 -12 11 5 1 11 1 24 0 28 -1 4 8 3 20 -3 19 -11 20 -10 8 12 -11 21
-11 22 4 9 15 -12 17 -11 17 3 0 9 7 16 15 16 8 0 15 5 15 11 0 5 -6 7 -12 3
-9 -5 -8 -2 1 9 11 14 16 15 29 5 13 -11 14 -10 7 11 -5 16 -4 21 4 17 6 -4
11 -2 11 3 0 6 6 10 13 8 6 -1 11 3 10 10 -2 7 8 24 22 39 14 15 22 30 19 35
-5 8 10 13 29 10 5 -1 6 3 2 9 -3 6 -12 8 -18 4 -7 -3 -3 2 7 10 11 9 17 16
13 16 -4 0 1 10 12 22 11 11 18 25 15 30 -3 4 3 8 13 9 11 0 13 3 5 6 -10 4
-10 8 0 21 11 13 11 15 -2 8 -9 -4 -8 -2 2 7 10 8 15 17 11 20 -3 4 -1 7 7 7
10 0 10 4 -1 17 -8 9 -9 14 -4 11 6 -3 16 0 23 8 8 9 9 14 2 14 -6 0 -4 7 4
16 9 8 14 19 11 24 -3 5 1 11 7 13 10 4 10 6 1 6 -7 1 -13 6 -13 12 0 5 5 7
10 4 6 -4 10 7 10 24 0 18 5 31 13 31 8 0 7 4 -3 10 -12 8 -12 10 -1 10 8 0
11 3 8 7 -4 3 -2 12 4 20 9 10 8 13 -1 13 -9 0 -8 5 3 18 13 15 14 21 4 32 -6
7 -7 10 -1 7 7 -4 12 12 14 46 1 29 3 60 3 70 1 9 6 17 12 17 5 0 3 5 -5 10
-10 6 -11 10 -2 10 9 0 12 37 12 150 0 113 -3 150 -12 150 -9 0 -8 4 2 10 13
9 13 10 0 10 -13 0 -13 1 0 10 12 8 12 10 1 10 -9 0 -12 9 -9 30 3 22 1 30
-11 30 -14 0 -14 1 -1 10 12 8 12 10 1 10 -8 0 -11 7 -8 19 3 11 -2 30 -11 42
-11 17 -12 20 -2 14 9 -5 6 6 -7 27 -15 26 -18 39 -10 47 8 8 6 11 -7 11 -12
0 -16 5 -13 14 3 8 -1 17 -9 20 -10 4 -13 13 -9 26 4 14 2 20 -7 18 -7 -2 -12
5 -12 15 2 14 -3 16 -20 11 -17 -5 -19 -4 -8 7 14 16 16 33 2 24 -5 -3 -10 -1
-10 5 0 6 -5 8 -12 4 -8 -5 -7 0 2 11 14 17 13 18 -4 12 -14 -5 -17 -3 -12 8
3 10 -3 17 -19 21 -14 3 -22 10 -19 15 3 5 0 9 -6 9 -6 0 -8 5 -4 12 5 8 2 9
-9 5 -11 -4 -17 -1 -17 7 0 7 -10 18 -22 24 -13 6 -17 11 -10 11 6 1 12 6 12
11 0 7 -8 6 -22 -1 -19 -10 -21 -10 -12 2 8 11 6 18 -8 32 -18 17 -25 11 -10
-9 4 -5 0 -1 -10 8 -9 10 -21 18 -27 18 -6 0 -11 5 -11 11 0 5 -4 8 -9 5 -5
-3 -11 1 -15 9 -3 8 -10 15 -16 15 -6 0 -23 13 -38 28 -15 15 -20 19 -12 9 14
-19 14 -19 -7 -6 -13 8 -23 17 -23 21 0 5 -9 8 -20 8 -11 0 -20 4 -20 9 0 5
-9 11 -21 14 -13 4 -18 10 -13 18 4 8 3 10 -5 5 -6 -4 -9 -13 -5 -19 3 -7 -4
-1 -15 12 -13 14 -21 18 -21 10 0 -10 -3 -10 -8 -3 -4 6 -17 14 -29 18 -13 4
-23 15 -23 24 0 15 -2 15 -10 2 -9 -13 -10 -13 -10 0 0 13 -1 13 -10 0 -6 -10
-10 -11 -10 -2 0 6 -9 12 -20 12 -11 0 -20 5 -20 11 0 5 -4 8 -9 5 -5 -3 -12
1 -15 10 -3 8 -10 13 -16 9 -5 -3 -24 1 -41 10 -17 9 -28 11 -24 5 5 -9 2 -9
-14 -1 -61 31 -61 31 -61 19 -1 -9 -4 -8 -13 2 -7 9 -20 14 -29 12 -10 -2 -18
1 -18 7 0 6 -11 11 -25 11 -14 0 -25 6 -25 13 0 8 -3 7 -10 -3 -8 -12 -10 -12
-16 3 -5 14 -9 15 -20 6 -11 -9 -15 -7 -20 5 -5 13 -9 14 -20 5 -10 -8 -14 -8
-14 0 0 6 -9 11 -19 11 -11 0 -22 6 -24 13 -4 10 -6 10 -6 0 -1 -18 -21 -16
-21 1 0 9 -7 13 -20 11 -11 -2 -20 0 -20 6 0 5 -9 9 -20 9 -11 0 -20 6 -20 13
0 8 -4 7 -10 -3 -9 -13 -10 -13 -10 0 0 12 -2 12 -9 2 -6 -10 -10 -9 -14 7 -3
14 -10 19 -21 15 -11 -4 -16 0 -17 12 0 11 -3 14 -6 7 -3 -10 -8 -9 -20 2 -17
18 -48 20 -37 3 4 -7 3 -8 -5 -4 -8 6 -9 12 -2 20 11 13 5 26 -11 26 -5 0 -6
-6 -2 -12 4 -8 3 -9 -2 -5 -5 5 -9 16 -9 25 0 9 -6 18 -12 18 -7 1 -17 2 -23
3 -5 0 -10 10 -10 20 0 11 -5 23 -12 27 -7 4 -8 3 -4 -4 5 -8 2 -10 -8 -6 -9
3 -14 11 -13 17 1 7 -4 11 -12 9 -12 -3 -12 -1 0 14 9 12 9 15 2 10 -8 -4 -13
-1 -13 8 0 9 -4 16 -9 16 -14 0 -11 144 3 152 8 6 7 8 -1 8 -7 0 -13 5 -13 11
0 5 5 7 10 4 6 -3 10 -1 10 5 0 6 4 8 10 5 6 -3 7 1 4 9 -3 9 -1 16 5 16 6 0
11 5 11 11 0 5 -6 7 -12 3 -9 -5 -9 -3 1 9 7 9 17 14 22 11 5 -3 9 0 9 6 0 6
4 9 9 6 4 -3 7 6 5 20 -2 21 0 23 12 13 11 -9 14 -8 14 4 0 8 12 18 27 22 15
3 31 12 35 18 6 9 8 9 8 -1 0 -10 3 -10 14 0 8 7 11 18 8 23 -3 6 2 4 12 -4
15 -13 18 -12 23 8 4 17 8 19 14 9 6 -9 9 -9 9 -1 0 9 43 12 162 12 115 0 165
-4 170 -12 6 -9 8 -9 8 1 0 7 5 10 10 7 6 -4 8 -10 6 -13 -2 -4 11 -7 30 -6
19 1 34 -2 34 -7 0 -5 12 -9 26 -9 17 0 23 -4 18 -12 -6 -10 -4 -10 8 0 14 11
18 10 26 -4 5 -9 22 -18 37 -20 16 -2 32 -9 36 -16 7 -10 9 -10 9 2 1 10 5 8
13 -7 7 -12 17 -23 22 -25 6 -2 9 -7 7 -12 -2 -5 4 -4 12 3 13 11 17 11 22 -2
3 -9 18 -24 32 -33 20 -13 24 -14 17 -3 -5 8 2 1 18 -16 19 -21 25 -24 20 -10
-6 17 -5 18 9 5 8 -8 13 -21 11 -28 -4 -8 0 -10 11 -6 9 3 24 0 33 -7 9 -8 14
-9 10 -3 -3 6 1 23 9 39 8 15 12 30 9 33 -2 3 3 11 13 18 14 11 14 14 2 14
-10 1 -8 4 5 9 11 5 21 13 21 20 1 6 2 16 3 22 0 5 7 7 14 3 9 -6 9 -4 -1 8
-10 13 -10 18 -1 24 8 5 9 3 4 -6 -5 -9 -4 -11 4 -6 6 4 9 19 7 33 -4 18 -1
23 9 19 8 -3 17 -1 20 4 4 6 1 10 -5 10 -6 0 -2 13 10 30 12 16 18 35 14 42
-5 8 -2 9 10 5 9 -4 15 -3 12 1 -3 5 1 20 9 35 7 14 11 28 7 31 -3 3 3 6 14 6
15 0 16 2 5 9 -11 7 -10 11 5 20 11 6 15 11 9 11 -5 0 -3 5 5 10 10 6 11 10 3
10 -7 0 -13 5 -13 11 0 6 7 8 16 5 12 -4 15 -2 10 9 -3 8 -1 15 5 15 6 0 7 5
4 10 -3 6 -1 10 5 10 7 0 9 7 6 15 -4 10 2 19 17 25 12 5 17 9 10 9 -7 1 -10
8 -7 16 4 8 10 12 15 9 6 -3 8 6 5 20 -3 19 -1 23 11 19 10 -4 14 -2 10 4 -4
6 -1 14 5 16 10 4 10 6 0 6 -10 1 -10 4 0 15 7 8 18 11 23 8 6 -3 4 2 -4 11
-8 10 -11 20 -7 24 3 3 6 1 6 -5 0 -7 4 -12 10 -12 5 0 6 7 3 17 -4 9 -2 14 3
10 6 -3 10 5 10 18 0 14 -5 21 -13 18 -7 -3 -15 2 -19 10 -3 9 -14 14 -25 12
-10 -2 -18 1 -16 8 1 7 -4 11 -10 10 -7 -2 -13 2 -13 7 0 6 -7 10 -15 10 -8 0
-15 6 -15 13 0 8 -4 7 -10 -3 -6 -10 -10 -11 -10 -2 0 6 -11 12 -25 12 -14 0
-25 4 -25 10 0 5 -6 9 -12 7 -7 -1 -12 4 -10 11 1 8 -2 11 -7 8 -5 -4 -12 -2
-15 2 -3 5 -15 8 -28 7 -12 -1 -31 7 -42 17 -15 14 -22 15 -28 6 -6 -10 -8
-10 -8 0 0 6 -9 12 -20 12 -11 0 -20 5 -20 11 0 5 -5 7 -10 4 -6 -4 -21 0 -34
8 -18 12 -26 13 -36 4 -10 -9 -11 -9 -6 1 5 8 -1 12 -18 12 -14 0 -26 5 -26
11 0 8 -5 8 -15 -1 -14 -12 -20 -7 -16 14 1 5 -5 4 -13 -4 -12 -9 -16 -9 -16
-1 0 7 -5 9 -11 5 -6 -3 -15 0 -20 7 -7 11 -9 11 -9 1 0 -7 -5 -10 -10 -7 -6
4 -8 10 -6 13 2 4 -11 7 -30 6 -19 -1 -34 2 -34 7 0 5 -20 9 -45 9 -25 0 -45
3 -45 8 0 4 -28 9 -62 10 -35 2 -68 8 -75 14 -9 7 -13 7 -13 -2 0 -9 -3 -10
-14 -1 -18 15 -419 14 -434 -1z m1143 -178 c3 -5 1 -10 -4 -10 -6 0 -11 5 -11
10 0 6 2 10 4 10 3 0 8 -4 11 -10z m-2061 -1646 c3 -8 2 -12 -4 -9 -6 3 -10
10 -10 16 0 14 7 11 14 -7z m248 -218 c7 4 8 2 4 -5 -9 -13 -26 -5 -25 12 0 9
2 8 6 -1 2 -6 10 -9 15 -6z m1991 -1331 c-3 -9 -8 -14 -10 -11 -3 3 -2 9 2 15
9 16 15 13 8 -4z"/>
<path d="M4090 5512 c0 -4 -217 -6 -482 -4 -266 1 -489 0 -498 -3 -12 -5 -12
-7 0 -15 7 -4 15 -19 17 -31 2 -13 9 -27 16 -31 9 -6 8 -8 -3 -9 -10 0 -9 -3
4 -8 11 -4 21 -17 23 -29 2 -12 4 -32 6 -44 2 -12 9 -24 15 -26 7 -2 10 -8 6
-13 -3 -5 1 -9 8 -9 9 0 9 -3 -2 -10 -11 -7 -11 -10 -2 -10 7 0 10 -4 7 -10
-3 -5 2 -10 12 -10 15 0 16 -2 3 -10 -11 -7 -11 -10 -2 -10 7 0 11 -4 8 -9 -3
-4 5 -21 19 -37 19 -23 22 -31 12 -43 -9 -12 -9 -13 1 -7 8 5 12 1 12 -13 0
-10 6 -22 13 -24 9 -4 9 -6 -1 -6 -10 -1 -10 -4 0 -15 7 -8 18 -11 23 -8 6 3
4 -2 -4 -11 -12 -15 -10 -18 10 -26 13 -5 17 -10 9 -11 -13 0 -13 -1 0 -10 11
-7 11 -10 2 -10 -8 0 -5 -8 8 -22 12 -13 16 -24 10 -26 -5 -2 -10 -8 -10 -13
0 -6 3 -8 8 -6 4 3 13 -1 20 -9 10 -11 10 -14 0 -14 -9 -1 -8 -4 3 -13 10 -7
15 -23 13 -39 -1 -17 2 -27 9 -25 7 1 12 -5 12 -13 0 -17 17 -40 26 -34 3 2 6
-3 6 -11 0 -8 -4 -12 -9 -9 -5 4 -4 -3 4 -15 7 -12 17 -21 23 -21 5 0 3 -5 -5
-10 -10 -6 -11 -10 -2 -10 6 0 12 -9 12 -20 0 -11 5 -20 11 -20 5 0 7 -4 4
-10 -3 -5 2 -10 12 -10 15 0 16 -2 3 -10 -10 -6 -11 -10 -2 -10 6 0 12 -11 12
-25 0 -14 5 -25 12 -25 9 0 9 -3 1 -11 -9 -9 -6 -17 10 -31 12 -11 15 -17 7
-13 -8 4 -6 -1 4 -9 15 -12 16 -16 5 -16 -10 -1 -9 -4 4 -11 15 -9 16 -13 5
-27 -7 -9 -8 -13 -3 -10 6 3 16 0 23 -8 7 -8 8 -14 2 -14 -5 0 -10 -5 -10 -11
0 -5 4 -8 9 -4 5 3 13 0 17 -7 8 -13 11 -23 17 -66 2 -13 10 -28 18 -33 8 -5
10 -9 6 -9 -5 0 -1 -7 8 -16 9 -9 14 -23 11 -30 -3 -8 -1 -14 4 -14 6 0 10
-11 10 -25 0 -14 5 -25 11 -25 5 0 7 -4 4 -10 -3 -5 -1 -10 5 -10 6 0 8 -4 5
-10 -3 -5 0 -10 7 -10 10 0 10 -2 -1 -9 -10 -7 -10 -10 -1 -13 7 -2 14 -13 14
-24 3 -28 16 -45 29 -37 8 4 7 1 -1 -9 -11 -14 -10 -18 6 -27 11 -6 23 -7 27
-3 5 4 5 1 1 -6 -4 -7 -11 -10 -15 -8 -4 3 -8 -1 -8 -9 0 -8 4 -12 9 -9 4 3 8
-4 8 -15 0 -12 6 -21 13 -21 9 0 9 -2 -1 -9 -11 -7 -10 -9 3 -15 9 -3 14 -10
11 -15 -4 -5 -2 -11 3 -13 5 -1 11 -16 13 -33 3 -32 18 -56 31 -48 4 2 7 0 7
-6 0 -5 -5 -13 -11 -17 -8 -4 -3 -12 12 -20 15 -8 18 -13 9 -14 -9 0 -11 -3
-5 -8 6 -4 15 -17 22 -29 10 -17 10 -23 0 -26 -7 -3 -1 -9 13 -15 14 -6 18
-11 10 -12 -13 0 -13 -1 0 -10 8 -5 15 -13 16 -17 1 -12 14 -46 25 -67 7 -12
7 -16 0 -12 -5 4 -13 1 -17 -5 -5 -8 -3 -9 5 -5 8 5 14 0 18 -13 3 -12 10 -21
15 -21 6 0 8 -9 5 -19 -3 -11 1 -22 9 -25 7 -3 11 -12 8 -21 -4 -10 0 -15 12
-15 14 0 15 -3 6 -12 -13 -13 -17 -32 -4 -25 4 3 13 -1 20 -9 10 -11 10 -14 0
-14 -9 -1 -8 -4 3 -13 10 -7 15 -23 13 -40 -1 -15 1 -25 6 -22 4 2 13 -1 19
-9 9 -11 9 -15 -1 -19 -8 -4 -4 -8 10 -13 18 -5 20 -9 10 -15 -10 -7 -10 -9 0
-9 6 0 12 -5 12 -11 0 -5 -6 -7 -12 -3 -7 4 -2 -5 12 -21 14 -16 20 -25 14
-22 -6 3 -11 0 -11 -8 0 -8 4 -12 8 -9 10 6 23 -15 24 -39 1 -10 8 -22 15 -27
10 -6 9 -9 -1 -13 -10 -4 -10 -6 -1 -6 6 -1 12 -6 12 -12 0 -5 -6 -7 -12 -3
-8 4 -10 3 -5 -2 5 -5 13 -10 18 -10 5 -1 12 -2 15 -3 4 0 1 -7 -5 -15 -10
-12 -8 -16 10 -21 17 -6 19 -9 8 -16 -10 -6 -11 -9 -1 -9 6 0 12 -11 12 -25 0
-14 5 -25 10 -25 6 0 10 -9 10 -20 0 -11 6 -20 13 -20 8 0 7 -4 -3 -10 -13 -9
-13 -10 0 -11 8 -1 18 -1 22 0 3 0 5 -15 4 -35 -2 -19 1 -37 7 -41 6 -4 7 -1
2 7 -5 9 -4 11 4 6 9 -6 9 -11 -1 -24 -7 -9 -8 -13 -2 -9 15 9 29 -11 33 -48
2 -16 6 -32 10 -35 14 -11 35 -43 24 -36 -9 5 -11 2 -7 -8 3 -9 10 -16 16 -16
5 0 7 -4 4 -9 -4 -5 0 -12 6 -14 10 -4 10 -6 0 -6 -10 -1 -9 -5 3 -17 9 -9 14
-22 12 -28 -5 -13 18 -38 27 -29 3 4 6 1 6 -5 0 -7 -4 -12 -10 -12 -5 0 -10
-5 -10 -11 0 -5 4 -8 9 -4 6 3 15 -4 21 -16 8 -15 9 -19 1 -15 -6 4 -11 2 -11
-3 0 -6 6 -11 14 -11 9 0 13 -7 11 -20 -2 -11 0 -20 6 -20 5 0 8 -6 7 -12 -2
-7 2 -12 8 -11 6 1 11 -4 11 -12 0 -8 -5 -11 -11 -8 -6 4 -2 -4 9 -17 13 -15
15 -21 5 -16 -8 4 -6 0 4 -8 13 -11 15 -16 6 -16 -14 0 -5 -14 11 -16 5 -1 12
-2 15 -3 4 0 1 -8 -6 -16 -10 -12 -9 -16 4 -21 9 -3 13 -10 10 -15 -3 -5 1 -9
8 -9 9 0 9 -3 -2 -10 -12 -8 -12 -10 5 -10 15 0 17 -3 7 -9 -11 -7 -11 -9 2
-14 9 -4 13 -13 10 -20 -3 -8 2 -21 10 -30 9 -9 16 -22 16 -29 0 -8 6 -20 13
-27 7 -9 8 -12 0 -7 -13 7 -12 -19 2 -31 4 -5 4 -1 0 7 -8 13 -7 13 9 0 10 -8
14 -16 7 -18 -7 -2 -7 -8 2 -17 7 -7 15 -11 18 -9 3 2 6 -3 6 -11 0 -8 -4 -12
-9 -9 -4 3 -8 0 -8 -5 0 -6 8 -11 18 -11 14 0 15 -2 2 -10 -13 -8 -12 -10 4
-10 15 0 16 -3 6 -15 -7 -9 -10 -18 -6 -22 3 -3 6 0 6 7 0 9 5 7 14 -6 10 -12
11 -23 5 -31 -7 -8 -5 -12 8 -15 10 -2 18 -10 19 -18 3 -44 5 -51 13 -45 5 3
12 1 15 -4 4 -5 1 -13 -5 -17 -8 -5 -9 -3 -4 6 5 9 4 11 -3 6 -17 -10 -15 -26
3 -26 8 0 15 -4 15 -9 0 -5 16 -11 35 -13 19 -2 35 -2 35 2 0 3 148 4 330 2
232 -2 330 1 330 8 0 6 5 8 10 5 17 -11 32 5 20 20 -9 10 -6 16 10 25 18 10
19 14 8 28 -10 12 -10 14 0 8 8 -4 13 -1 14 11 0 10 2 24 2 31 1 7 7 17 15 21
7 5 10 14 6 21 -4 7 1 14 15 17 16 4 18 8 8 14 -7 5 -8 9 -3 9 6 0 11 10 12
22 1 11 7 24 14 28 8 6 8 9 -2 13 -10 4 -10 6 -1 6 6 1 12 8 12 16 0 8 4 15 9
15 8 0 22 30 25 55 1 6 5 16 9 23 5 6 5 17 1 24 -4 6 -3 9 2 5 5 -3 14 6 21
19 8 18 8 24 0 25 -7 0 -1 5 13 10 20 8 22 12 10 19 -12 8 -12 10 1 15 9 3 15
16 14 28 -2 25 15 48 30 39 6 -3 4 1 -3 10 -10 13 -10 18 -1 24 8 5 9 3 4 -6
-6 -9 -4 -11 4 -6 7 5 10 14 7 22 -3 7 -1 16 5 19 5 4 7 10 4 15 -3 4 2 11 10
14 13 4 14 10 5 26 -9 16 -8 19 6 13 11 -4 15 -2 11 4 -9 14 2 45 13 38 5 -3
11 -1 15 5 3 5 0 10 -7 10 -8 0 -9 3 -3 8 6 4 10 14 10 22 0 8 6 20 15 27 11
9 12 12 2 13 -10 0 -9 4 2 16 9 8 14 20 10 25 -3 5 5 13 18 18 13 6 17 10 9
10 -10 1 -11 4 -2 14 6 8 8 17 4 20 -3 4 0 7 7 7 7 0 10 3 7 7 -4 3 -1 13 6
21 10 13 9 15 -3 8 -8 -4 -7 -1 4 8 10 8 15 20 11 26 -4 7 2 14 14 17 23 6 28
19 9 26 -10 4 -10 6 0 6 7 1 10 6 7 11 -3 6 -1 10 5 10 6 0 8 5 5 10 -3 6 0
10 7 10 9 0 9 3 -2 10 -8 5 -10 10 -5 10 6 0 16 9 23 21 11 17 11 20 0 14 -7
-5 -3 2 10 14 24 24 29 36 10 26 -7 -4 -4 1 6 9 15 12 16 16 5 16 -12 0 -12 2
0 9 7 5 11 13 8 17 -7 12 19 35 29 26 5 -4 2 1 -5 10 -11 15 -11 19 3 24 9 3
13 10 10 15 -3 5 0 9 6 9 6 0 8 11 6 24 -3 17 -1 23 8 20 9 -3 13 3 12 18 -1
13 5 29 14 36 13 12 13 13 0 7 -8 -4 -6 1 4 9 15 12 16 16 5 16 -8 0 -10 3 -4
8 16 12 65 112 54 112 -5 0 -4 6 3 14 7 8 18 11 23 8 6 -3 4 2 -4 11 -11 14
-11 17 0 17 11 0 11 2 -1 10 -13 8 -13 10 2 10 9 0 20 5 24 12 5 7 3 8 -5 3
-10 -5 -9 -2 0 13 7 12 16 19 19 17 4 -2 7 2 7 10 0 8 -5 11 -11 8 -6 -4 -2 3
8 15 11 12 15 22 10 22 -5 0 -2 5 6 10 10 6 11 10 3 10 -7 0 -13 5 -13 11 0 5
3 8 8 6 4 -3 13 1 20 9 8 9 9 14 2 14 -6 0 -8 5 -5 10 4 6 11 7 17 4 7 -5 9 0
6 14 -4 14 -2 20 5 15 6 -4 8 0 4 10 -4 10 0 20 11 26 11 7 12 11 4 11 -9 0
-7 9 8 30 12 16 18 35 14 42 -5 7 -2 9 8 5 12 -4 15 0 13 19 -1 16 4 28 13 31
12 5 12 8 -4 21 -16 13 -17 14 -1 9 11 -4 17 -1 17 7 0 8 6 17 13 19 9 4 8 6
-2 6 -10 1 -7 7 8 20 16 14 18 21 9 24 -11 4 -10 6 0 6 7 1 10 6 7 11 -3 6 -1
10 5 10 7 0 10 7 6 15 -3 8 0 15 7 15 8 0 6 4 -3 10 -13 8 -13 10 2 10 9 0 20
5 24 12 4 6 3 8 -3 5 -5 -3 -10 0 -10 7 0 8 8 12 21 9 16 -4 17 -2 7 5 -10 7
-10 11 -1 17 6 4 9 13 6 21 -3 8 -1 14 5 14 6 0 8 4 5 9 -4 5 0 12 6 14 10 4
10 6 1 6 -7 1 -13 6 -13 12 0 5 3 8 8 6 4 -3 12 1 19 8 10 11 10 15 0 18 -7 3
-1 9 13 15 14 6 19 11 13 11 -9 1 -6 12 7 37 11 19 16 33 10 29 -6 -3 -7 0 -4
9 3 9 11 13 17 9 6 -4 8 0 4 11 -4 10 -1 19 7 22 15 6 17 34 2 34 -6 0 -4 4 4
9 8 6 18 7 24 4 5 -3 6 -1 2 6 -4 6 -2 18 4 26 10 12 10 15 -1 15 -8 0 -3 9
11 20 15 12 19 20 11 20 -9 0 -7 6 8 19 16 14 18 21 9 24 -11 4 -10 6 0 6 7 1
10 6 7 11 -3 6 -1 10 5 10 6 0 9 4 6 9 -4 5 0 12 6 14 9 4 8 6 -2 6 -11 1 -8
8 10 22 14 11 19 18 12 14 -11 -6 -11 -3 -1 13 7 12 16 19 19 17 4 -2 7 2 7
10 0 8 -5 11 -11 8 -6 -4 -2 3 8 15 11 12 15 22 10 22 -5 0 -2 5 6 10 10 6 11
10 3 10 -7 0 -13 5 -13 11 0 5 3 8 8 6 4 -3 13 1 20 9 8 9 9 14 2 14 -6 0 -8
5 -5 10 4 6 11 7 17 4 7 -5 9 0 6 14 -4 14 -2 20 5 15 6 -4 8 0 4 10 -4 10 0
20 11 26 14 8 14 11 2 11 -12 0 -10 4 4 15 11 8 16 15 10 15 -5 0 -2 5 6 10
10 6 11 10 3 10 -7 0 -13 5 -13 11 0 6 7 8 16 5 12 -4 15 -2 10 9 -3 8 -1 15
4 15 6 0 9 3 9 8 -4 25 2 42 14 36 8 -5 8 -3 -2 9 -11 14 -11 18 3 23 10 4 15
13 12 21 -4 9 -2 11 6 7 8 -5 9 -2 5 9 -4 10 0 20 11 26 9 6 12 11 6 11 -6 0
-11 6 -11 14 0 9 7 12 16 8 9 -3 13 -2 9 3 -4 4 -2 15 5 23 10 13 9 14 -3 8
-8 -4 -4 2 10 13 17 14 20 21 10 21 -13 0 -13 2 -1 9 8 5 11 16 8 24 -4 12 -2
14 11 10 15 -6 15 -4 4 9 -11 14 -10 18 10 29 14 8 18 14 10 17 -6 2 -12 8
-12 13 0 6 3 8 8 6 4 -3 13 1 20 9 10 11 10 14 0 14 -9 1 -8 4 3 13 9 7 15 20
13 30 -1 9 3 17 9 17 5 0 7 3 4 7 -4 3 1 12 11 20 9 8 11 12 5 8 -9 -4 -11 -1
-7 9 3 9 11 13 17 9 6 -4 8 0 4 10 -3 9 1 23 9 32 12 11 12 15 2 15 -8 0 -5 5
6 11 15 9 16 13 5 20 -10 6 -11 9 -1 9 6 0 12 7 12 15 0 13 -67 15 -510 17
-401 2 -511 0 -515 -9 -2 -7 -11 -13 -19 -13 -9 0 -13 -6 -10 -14 3 -8 0 -17
-7 -22 -8 -4 -10 -3 -5 4 11 18 0 14 -15 -5 -10 -11 -10 -14 -1 -9 7 4 12 1
12 -8 0 -9 -5 -16 -11 -16 -5 0 -8 -4 -4 -9 3 -5 1 -12 -5 -16 -6 -4 -8 -11
-5 -16 4 -5 1 -9 -5 -9 -7 0 -9 -7 -6 -16 4 -10 2 -13 -6 -8 -8 5 -9 2 -5 -9
4 -10 1 -17 -5 -17 -6 0 -8 -3 -5 -7 4 -3 2 -12 -4 -20 -9 -10 -8 -13 2 -14 8
0 3 -5 -11 -10 -20 -8 -22 -12 -10 -19 11 -7 12 -10 2 -10 -7 0 -11 -4 -7 -9
3 -6 -3 -14 -12 -20 -11 -6 -13 -11 -5 -11 9 0 7 -9 -8 -30 -14 -19 -17 -30
-9 -30 7 0 4 -6 -7 -15 -10 -8 -14 -15 -9 -15 6 0 3 -5 -5 -10 -11 -7 -11 -10
-2 -10 7 0 10 -5 7 -10 -4 -6 -11 -8 -16 -5 -13 9 -11 -9 4 -24 10 -10 9 -11
-5 -6 -14 5 -18 2 -19 -14 -3 -40 -16 -65 -39 -74 -12 -4 -11 -6 3 -6 21 -1
23 -17 2 -24 -8 -4 -12 -15 -10 -27 2 -11 0 -18 -6 -15 -5 4 -9 -1 -9 -9 0 -9
-6 -16 -12 -16 -10 0 -9 -3 1 -9 11 -7 9 -11 -8 -21 -18 -9 -20 -14 -10 -26 9
-11 9 -14 0 -14 -7 0 -10 -4 -7 -9 3 -5 -1 -12 -10 -15 -14 -5 -14 -9 -3 -23
10 -12 10 -14 2 -9 -12 6 -18 -11 -14 -36 0 -5 -4 -8 -10 -8 -6 0 -9 -7 -6
-15 4 -8 2 -17 -3 -20 -6 -4 -10 -1 -10 6 0 7 -3 9 -6 6 -4 -4 -1 -14 7 -24 9
-11 10 -14 2 -9 -8 4 -13 2 -14 -6 -3 -27 -4 -33 -14 -49 -5 -9 -17 -19 -25
-22 -12 -4 -11 -6 3 -6 21 -1 23 -17 2 -24 -8 -4 -12 -15 -10 -27 2 -11 0 -18
-6 -15 -5 4 -9 -1 -9 -9 0 -9 -6 -16 -12 -16 -9 0 -8 -3 2 -10 12 -8 12 -10
-3 -16 -9 -3 -14 -10 -11 -15 3 -5 -1 -9 -8 -9 -10 0 -9 -3 2 -10 12 -8 12
-10 -3 -16 -9 -3 -14 -10 -11 -15 3 -5 -1 -9 -8 -9 -10 0 -9 -3 2 -10 12 -8
12 -10 -4 -16 -14 -5 -15 -9 -4 -15 11 -7 11 -9 -1 -9 -7 0 -11 -6 -8 -13 6
-15 -18 -39 -29 -29 -5 4 -2 -2 6 -12 13 -17 13 -18 1 -11 -11 6 -13 4 -8 -7
3 -9 0 -21 -6 -27 -6 -6 -7 -11 -2 -11 5 0 0 -7 -12 -15 -16 -11 -20 -22 -17
-41 3 -18 1 -23 -7 -18 -8 4 -9 3 -5 -5 4 -6 2 -19 -6 -28 -11 -14 -11 -16 2
-9 8 4 4 -2 -10 -14 -14 -12 -18 -18 -10 -14 13 7 13 5 1 -9 -7 -9 -10 -17 -5
-17 5 0 0 -7 -10 -15 -11 -9 -14 -15 -7 -15 8 0 5 -11 -9 -30 -14 -19 -17 -30
-9 -30 7 0 4 -6 -7 -15 -10 -8 -14 -15 -9 -15 6 0 3 -5 -5 -10 -11 -7 -11 -10
-2 -10 7 0 10 -5 7 -10 -4 -6 -11 -8 -16 -5 -13 9 -11 -9 4 -24 10 -10 9 -11
-5 -6 -14 6 -18 2 -18 -14 0 -12 -6 -21 -12 -21 -10 0 -9 -3 1 -9 11 -7 10
-11 -5 -20 -11 -6 -14 -11 -9 -11 6 0 3 -5 -5 -10 -10 -6 -11 -10 -2 -10 6 0
12 -5 12 -11 0 -5 -4 -7 -10 -4 -9 5 -15 -15 -11 -37 0 -5 -3 -8 -9 -8 -5 0
-7 -7 -4 -15 5 -11 2 -13 -10 -9 -9 3 -16 2 -16 -4 0 -6 6 -13 13 -15 9 -4 9
-6 -1 -6 -7 -1 -10 -6 -7 -11 3 -6 -1 -13 -10 -16 -13 -6 -14 -8 -3 -15 10 -7
11 -9 0 -9 -7 0 -11 -4 -8 -9 3 -5 -1 -12 -10 -15 -14 -5 -14 -9 -3 -23 10
-12 10 -14 2 -9 -9 4 -14 1 -15 -11 0 -10 -2 -24 -2 -31 -1 -7 -7 -17 -15 -21
-8 -5 -11 -16 -8 -26 4 -9 3 -14 -3 -10 -6 3 -11 0 -11 -7 -4 -39 -18 -70 -30
-62 -5 3 -9 0 -9 -5 0 -6 4 -11 9 -11 5 0 1 -15 -8 -34 -12 -25 -19 -31 -28
-24 -9 7 -13 7 -13 -1 0 -18 -16 -13 -18 7 -4 47 -10 64 -25 82 -11 13 -12 20
-4 24 7 2 3 5 -8 5 -17 1 -17 3 -5 11 12 8 12 10 -5 10 -17 0 -17 2 -5 10 8 5
10 10 5 10 -6 0 -11 10 -12 22 -1 11 -8 25 -15 29 -10 7 -10 9 1 9 11 0 10 4
-4 13 -10 8 -15 19 -11 25 4 7 2 12 -3 12 -6 0 -11 9 -11 19 0 11 -6 22 -12
24 -10 4 -10 6 0 6 6 1 12 6 12 12 0 5 -4 8 -9 4 -15 -9 -25 13 -34 74 -2 14
-9 27 -15 29 -7 2 -10 8 -6 13 3 5 0 9 -5 9 -6 0 -11 11 -11 25 0 14 -7 33
-17 44 -9 11 -17 32 -19 47 -2 15 -9 31 -16 35 -10 7 -10 9 1 9 11 0 10 4 -4
13 -10 8 -15 19 -11 25 4 7 2 12 -3 12 -6 0 -11 9 -11 19 0 11 -6 22 -12 24
-10 4 -10 6 0 6 6 1 12 6 12 12 0 5 -4 8 -9 4 -10 -6 -24 11 -27 35 -2 8 -4
24 -6 35 -4 24 -20 45 -30 38 -13 -7 -9 12 4 25 9 9 9 12 -1 12 -7 0 -9 5 -6
10 3 6 -2 10 -11 10 -14 0 -15 3 -6 12 17 17 15 25 -10 31 -19 5 -20 8 -7 23
9 12 10 15 2 10 -9 -5 -13 0 -13 13 0 12 -6 21 -12 21 -10 0 -10 2 0 9 11 6
10 10 -3 15 -10 3 -15 12 -11 21 3 8 1 15 -4 15 -6 0 -10 9 -10 19 0 11 -6 22
-12 24 -10 4 -10 6 0 6 6 1 12 6 12 12 0 5 -4 8 -9 4 -5 -3 -13 0 -17 7 -8 12
-10 22 -17 70 -2 12 -9 24 -15 26 -7 2 -10 8 -6 13 3 5 0 9 -5 9 -6 0 -11 9
-11 20 0 11 -6 20 -12 20 -9 0 -8 4 2 10 10 6 11 10 3 10 -7 0 -13 9 -13 19 0
10 -8 22 -17 25 -12 5 -13 10 -5 18 8 8 7 15 -6 24 -10 8 -12 13 -4 14 6 0 12
5 12 11 0 5 -4 8 -9 5 -5 -3 -14 1 -21 9 -9 11 -10 15 -1 15 7 0 3 13 -10 32
-13 17 -18 29 -12 25 8 -5 8 0 0 18 -7 14 -15 25 -19 25 -5 0 -8 14 -8 30 0
17 -5 30 -12 30 -9 0 -8 4 2 10 12 8 12 10 -5 10 -15 0 -17 3 -7 9 11 7 11 9
-2 14 -9 4 -13 13 -10 20 3 8 -2 21 -10 30 -9 9 -18 30 -20 48 -1 17 -11 36
-20 41 -14 8 -15 12 -4 26 10 12 10 14 1 8 -9 -5 -13 1 -13 18 0 14 -6 26 -12
26 -9 0 -9 3 1 9 11 7 10 10 -4 12 -10 2 -20 13 -21 24 -2 11 -5 30 -7 41 -2
12 -11 30 -21 39 -10 10 -15 26 -13 36 3 11 1 19 -4 19 -5 0 -11 11 -15 25 -3
14 -9 25 -13 25 -4 0 -8 15 -9 33 -2 17 -7 34 -12 35 -6 2 -10 10 -10 18 0 7
-12 16 -27 20 -16 3 -34 7 -40 10 -7 2 -13 0 -13 -4z m1350 -1342 c0 -5 -5
-10 -11 -10 -5 0 -7 5 -4 10 3 6 8 10 11 10 2 0 4 -4 4 -10z"/>
<path d="M529 4893 c-13 -16 -12 -17 4 -4 9 7 17 15 17 17 0 8 -8 3 -21 -13z"/>
<path d="M1590 4709 c0 -5 5 -7 10 -4 6 3 10 8 10 11 0 2 -4 4 -10 4 -5 0 -10
-5 -10 -11z"/>
<path d="M755 3580 c3 -5 8 -10 11 -10 2 0 4 5 4 10 0 6 -5 10 -11 10 -5 0 -7
-4 -4 -10z"/>
</g>
</svg>
